<svg viewBox="0 0 500 500" xmlns="http://www.w3.org/2000/svg"><defs><style>.a{fill:#ffd08f;}.b{fill:#5e2e0d;}.c{fill:#442d11;}.d{fill:#ff1739;}.e{fill:#ffe1bd;}.f{fill:#ff8b78;}.g{fill:#e2b279;}.h{fill:#fffefd;}</style></defs><title>画板 12</title><path d="M200.3,217.3a5.87,5.87,0,0,1-2.43-.52,6,6,0,0,1-3.35-3.9c-.89-3.27-21.43-80.43,12.38-104.46a6,6,0,0,1,3.46-1.1,5.83,5.83,0,0,1,1.93.32,6,6,0,0,1,3.8,3.91c.13.42,13.21,41.6,46.14,42.44,8.28.22,13,2.87,14.18,7.9.88,3.91,3.56,15.83-73.41,54.76A6,6,0,0,1,200.3,217.3Z" class="a"></path><path d="M210.37,113.31S224.31,159,262.08,160s-61.78,51.33-61.78,51.33-20.73-76.12,10.07-98m0-12a12,12,0,0,0-6.92,2.2c-36.55,26-17,102.3-14.69,110.92a12,12,0,0,0,11.56,8.83,12.13,12.13,0,0,0,5.41-1.29C286.84,181,284,168.2,282.26,160.58c-1-4.53-5-12.19-19.87-12.57-28.55-.73-40.46-37.86-40.58-38.23A12,12,0,0,0,214.2,102a12.18,12.18,0,0,0-3.85-.63Z" class="b"></path><path d="M290.67,375.26a103,103,0,0,1-20.1-2l-51.86-10.39a6.28,6.28,0,0,1-5.08-6.48L190,247.51a6.07,6.07,0,0,1-.13-1.59c.06-1.11,6.92-110.72,88.42-110.72,82.17.23,129.26,44.65,129.45,121.85.07,31.58-11.94,61-33.82,83-22.33,22.38-52.66,35.22-83.22,35.22Z" class="a"></path><path d="M278.27,141.19h.24c77,.22,123,39.83,123.22,115.88.16,68.06-56.63,112.21-111,112.21a96.83,96.83,0,0,1-18.94-1.85L219.88,357l-24-110.8s5.67-105,82.44-105M219.58,357l.3.06-.3-.06m58.69-227.77c-69.7,0-92.23,76.14-94.4,116.39a11.73,11.73,0,0,0,.26,3.18L207.61,357a11.94,11.94,0,0,0,9.91,11.81h0l51.86,10.38a108.93,108.93,0,0,0,21.29,2.08c32.14,0,64-13.47,87.45-37,23-23.08,35.65-54.06,35.57-87.24-.19-81-49.46-127.58-135.15-127.83Z" class="b"></path><path d="M401.44,239.27S437,177,414.8,134.06c0,0-49.25,50.68-84.48,37" class="a"></path><path d="M401.43,245.26a5.9,5.9,0,0,1-3-.79,6,6,0,0,1-2.23-8.17c.31-.55,29.68-52.82,16.44-91.94-15.1,13.67-53.62,44.26-84.52,32.32a6,6,0,0,1,4.33-11.17c31.1,12,77.55-35.14,78-35.62a6,6,0,0,1,9.61,1.42c23.44,45.36-12,108.28-13.49,110.93A6,6,0,0,1,401.43,245.26Z" class="b"></path><path d="M303.61,343s-79.26,26.16-108.19,40c-34.08,16.29-68.16-5.94-68.16-5.94s-17.78-26.68-7.4-40,127.45-59.24,127.45-59.24" class="a"></path><path d="M168.58,395c-24.41,0-43.51-12.22-44.6-12.93a6,6,0,0,1-1.71-1.69c-2.06-3.1-19.8-30.75-7.14-47,10.84-13.92,110.19-53.37,130-61.14a6,6,0,0,1,4.38,11.15c-56.8,22.27-119.06,49.82-124.92,57.35s2.65,25,7,31.93c5.65,3.28,33.85,18.05,61.3,4.94,28.93-13.83,105.64-39.19,108.89-40.26a6,6,0,0,1,3.76,11.37c-.79.26-79.24,26.2-107.48,39.7A67.66,67.66,0,0,1,168.58,395Z" class="b"></path><path d="M265.09,304.45s-76.25,23.95-86,44.43c-13.34,28.16-62.24,2.95-62.24,2.95s-10.37-25.19,25.2-48.89S265.09,304.45,265.09,304.45Z" class="c"></path><path d="M155.05,368.17c-19.26,0-39.84-10.47-40.9-11a6.06,6.06,0,0,1-2.8-3c-.49-1.21-11.78-30,27.42-56.16,37.46-25,124.31-.32,128,.74a6,6,0,0,1,.13,11.47c-28.51,9-76.09,28.1-82.34,41.29a27.53,27.53,0,0,1-16.61,14.79A40,40,0,0,1,155.05,368.17ZM121.9,347.62c9.23,4.28,29.48,11.58,42.2,7.28a15.78,15.78,0,0,0,9.62-8.58c7.57-16,45.2-31.9,69.89-40.89-27.18-5.72-75.25-12.8-98.2,2.49C119.91,324.91,120.72,341.88,121.9,347.62Z" class="b"></path><path d="M226.56,304.44l-1.48,7.41s-57,11.71-72.21,51S88.73,377,100.59,356.27s16.31-43,48.91-51.85,77.06,0,77.06,0" class="d"></path><path d="M125.81,389.55c-11.74,0-23.46-5.85-29.4-15-4.46-6.85-4.84-14.6-1-21.27,2.19-3.84,4.12-7.73,6-11.57,8.6-17.3,17.5-35.19,46.51-43.1,33.57-9.14,77.93-.45,79.81-.07a6,6,0,0,1,4.69,7L231,313a6,6,0,0,1-4.66,4.69c-.54.12-54,11.57-67.83,47.34C151,384.35,137,388.56,129.4,389.36A33.08,33.08,0,0,1,125.81,389.55Zm58-83.08c-10.92,0-22.51.94-32.75,3.73-23.82,6.49-30.82,20.57-38.93,36.87-2,4.05-4,8.14-6.35,12.18-1.58,2.75-1.36,5.71.65,8.79,3.45,5.3,12.15,10.36,21.72,9.41,8.62-.9,15.24-6.68,19.13-16.72,12.4-32,49.11-46.77,66.85-52.18A238.68,238.68,0,0,0,183.82,306.47Z" class="b"></path><path d="M238.43,245.16s-69.65,1.47-86,5.91S111,304.41,162.84,314.8s28.16-25.19,124.48-5.9" class="a"></path><path d="M180,322.73a93.52,93.52,0,0,1-18.3-2.06c-30.36-6.08-35.47-24.16-35.83-34.38-.63-18.76,13.2-37.76,25.08-41,16.81-4.59,84.52-6.06,87.39-6.13h.13a6,6,0,0,1,.13,12c-19.17.4-71.72,2.22-84.51,5.7-5.69,1.55-16.71,15.19-16.24,29,.5,14.81,14.53,20.71,26.2,23,20.05,4,27.27.73,36.42-3.44,13.63-6.22,30.61-14,88.06-2.46a6,6,0,0,1-2.35,11.75c-53.63-10.74-68-4.18-80.75,1.6C198.29,319.61,191.46,322.73,180,322.73Z" class="b"></path><ellipse transform="translate(-137.5 396.64) rotate(-78.68)" ry="34" rx="26.45" cy="282.2" cx="173.22" class="e"></ellipse><path d="M216.17,240.71h0c-8.31-1.62-14.35-9.61-12.94-17.77q1.91-11.13,4.69-22.25a16.36,16.36,0,0,1,18.64-11.84h0c8,1.63,12.61,9.62,10.76,17.78q-2.55,11.12-4.21,22.24A14,14,0,0,1,216.17,240.71Z" class="b"></path><path d="M297.67,257h0c-8.31-1.62-14.35-9.62-12.94-17.77q1.9-11.13,4.69-22.25a16.36,16.36,0,0,1,18.64-11.84h0c8,1.63,12.61,9.62,10.76,17.78q-2.55,11.12-4.21,22.24A14,14,0,0,1,297.67,257Z" class="b"></path><path d="M136.83,253.34c2.94-7.41,11.13-11.27,19-10.2,15.43,2.07,44.82,8.3,47,25.73,3,23.71-32.6,8.88-41.5,14.81s-26.67-20.76-25.18-28.17A12.87,12.87,0,0,1,136.83,253.34Z" class="b"></path><path d="M155.42,319.3a5.94,5.94,0,0,1-3.67-1.26c-16.65-13-3.3-42.5-1.72-45.82a6,6,0,0,1,10.82,5.12c-2.92,6.19-9.49,25.22-1.75,31.25a6,6,0,0,1-3.68,10.71Z" class="b"></path><path d="M139.13,340a2.45,2.45,0,0,1-.6-.06,3,3,0,0,1-2.34-3.52c4.87-24.35,26.42-24.63,26.65-24.63h0a3,3,0,0,1,0,6h0c-.69,0-16.9.37-20.79,19.82A3,3,0,0,1,139.13,340Z" class="b"></path><ellipse transform="translate(-70.99 418.33) rotate(-59.62)" ry="26.45" rx="15.11" cy="271.12" cx="329.56" class="f"></ellipse><path d="M404.68,160.4c-6.14,9.36-15.35,22.13-24.06,29.31a23.75,23.75,0,0,0-5.32,30.82C394,250.84,411,194,412.64,163A4.33,4.33,0,0,0,404.68,160.4Z" class="g"></path><path d="M153.64,263.66s4.52-6.06,21.15-3.06c14.87,2.68,4.52-6.05-12.1-9.05S141.53,254.61,153.64,263.66Z" class="h"></path></svg>